{"accessors" : [{"bufferView" : 0, "byteOffset" : 0, "componentType" : 5125, "count" : 517992, "type" : "SCALAR", "max" : [517991], "min" : [0]}, {"bufferView" : 1, "byteOffset" : 0, "componentType" : 5126, "count" : 517992, "type" : "VEC3", "max" : [0.7233141660690308, 0.48154863715171814, 0.3224059045314789], "min" : [-0.8428394794464111, -0.512420117855072, -0.13237203657627106], "name" : "POSITION"}, {"bufferView" : 1, "byteOffset" : 12, "componentType" : 5126, "count" : 517992, "type" : "VEC3", "max" : [1.0000044107437134, 1.0000044107437134, 1.0000044107437134], "min" : [-1.0000044107437134, -1.0000044107437134, -1.0000044107437134], "name" : "NORMAL"}], "asset" : {"generator" : "Aspose.3D 24.2.0", "version" : "2.0"}, "buffers" : [{"uri" : "buffer.bin", "byteLength" : 14503784}], "bufferViews" : [{"buffer" : 0, "byteOffset" : 0, "byteLength" : 2071968, "target" : 34963}, {"buffer" : 0, "byteOffset" : 2071972, "byteLength" : 12431808, "byteStride" : 24, "target" : 34962}], "materials" : [{"name" : "Cloud", "pbrMetallicRoughness" : {"baseColorFactor" : [0.800000011920929, 0.800000011920929, 0.800000011920929, 1], "metallicFactor" : 1, "roughnessFactor" : 1}, "emissiveFactor" : [0, 0, 0], "alphaMode" : "OPAQUE", "doubleSided" : false}], "meshes" : [{"primitives" : [{"attributes" : {"POSITION" : 1, "NORMAL" : 2}, "indices" : 0, "material" : 0, "mode" : 4}], "name" : "Cube.022"}], "nodes" : [{"matrix" : [100, 0, 0, 0, 0, -1.6292067955264296E-05, -99.99999999999866, 0, 0, 99.99999999999866, -1.6292067955264296E-05, 0, 0, 0, 0, 1], "mesh" : 0, "name" : "Cloud Polygon Blender 1"}], "scene" : 0, "scenes" : [{"nodes" : [0]}]}