{"extensionsUsed" : ["KHR_materials_ior"], "accessors" : [{"bufferView" : 0, "byteOffset" : 0, "componentType" : 5123, "count" : 63420, "type" : "SCALAR", "max" : [12584], "min" : [0]}, {"bufferView" : 1, "byteOffset" : 0, "componentType" : 5126, "count" : 12585, "type" : "VEC3", "max" : [0.7639951109886169, 0.5131059885025024, 0.326590895652771], "min" : [-0.8929160833358765, -0.43423932790756226, -0.9113921523094177], "name" : "POSITION"}, {"bufferView" : 1, "byteOffset" : 12, "componentType" : 5126, "count" : 12585, "type" : "VEC3", "max" : [0.999863862991333, 0.99892258644104, 1.0000008344650269], "min" : [-0.9999831914901733, -0.9983692765235901, -0.9998914003372192], "name" : "NORMAL"}, {"bufferView" : 1, "byteOffset" : 24, "componentType" : 5126, "count" : 12585, "type" : "VEC2", "max" : [0.9890815019607544, 1.9989265203475952], "min" : [0.0010735164396464825, 1.0010735988616943], "name" : "TEXCOORD_0"}], "asset" : {"generator" : "Aspose.3D 24.6.0", "version" : "2.0"}, "buffers" : [{"uri" : "data:application/octet-stream;base64,", "byteLength" : 529568}], "bufferViews" : [{"buffer" : 0, "byteOffset" : 0, "byteLength" : 126840, "target" : 34963}, {"buffer" : 0, "byteOffset" : 126844, "byteLength" : 402720, "byteStride" : 32, "target" : 34962}], "images" : [{"uri" : "data:image/jpeg;base64,"}, {"uri" : "data:image/jpeg;base64,"}], "materials" : [{"name" : "base_material", "extensions" : {"KHR_materials_specular" : {"specularColorFactor" : [0, 0, 0]}, "KHR_materials_ior" : {"ior" : 1.4500000476837158}}, "pbrMetallicRoughness" : {"baseColorFactor" : [1, 1, 1, 1], "baseColorTexture" : {"index" : 1, "texCoord" : 0}, "metallicFactor" : 0, "roughnessFactor" : 1}, "normalTexture" : {"index" : 0, "texCoord" : 0, "scale" : 1}, "emissiveFactor" : [0, 0, 0], "alphaMode" : "OPAQUE", "doubleSided" : true}], "meshes" : [{"primitives" : [{"attributes" : {"POSITION" : 1, "NORMAL" : 2, "TEXCOORD_0" : 3}, "indices" : 0, "material" : 0, "mode" : 4}]}], "nodes" : [{"matrix" : [0.6031801104545593, 0, 0, 0, 0, -8.104258989520113E-08, 0.6031801914971492, 0, 0, -0.6031801914971492, -8.104258989520113E-08, 0, 0, 0, 0, 1], "mesh" : 0, "name" : "mesh"}], "samplers" : [{"magFilter" : 9729, "minFilter" : 9987, "wrapS" : 10497, "wrapT" : 10497}, {"magFilter" : 9729, "minFilter" : 9987, "wrapS" : 10497, "wrapT" : 10497}], "scene" : 0, "scenes" : [{"nodes" : [0]}], "textures" : [{"sampler" : 0, "source" : 0, "name" : ""}, {"sampler" : 1, "source" : 1, "name" : ""}]}