{"accessors" : [{"bufferView" : 0, "byteOffset" : 0, "componentType" : 5123, "count" : 36, "type" : "SCALAR", "max" : [7], "min" : [0]}, {"bufferView" : 1, "byteOffset" : 0, "componentType" : 5126, "count" : 8, "type" : "VEC3", "max" : [1.2903059720993042, 1.4628030061721802, 4.054683208465576], "min" : [-1.655282974243164, -1.6363970041275024, -3.597899913787842], "name" : "POSITION"}, {"bufferView" : 0, "byteOffset" : 72, "componentType" : 5123, "count" : 1188, "type" : "SCALAR", "max" : [199], "min" : [0]}, {"bufferView" : 2, "byteOffset" : 0, "componentType" : 5126, "count" : 200, "type" : "VEC3", "max" : [0.6167359948158264, 0.5056139826774597, 3.0767040252685547], "min" : [-0.6167359948158264, -0.8098040223121643, -2.6285810470581055], "name" : "POSITION"}, {"bufferView" : 0, "byteOffset" : 2448, "componentType" : 5123, "count" : 132, "type" : "SCALAR", "max" : [23], "min" : [0]}, {"bufferView" : 3, "byteOffset" : 0, "componentType" : 5126, "count" : 24, "type" : "VEC3", "max" : [1, 1, 3.3601319789886475], "min" : [-1, -1.2166149616241455, -2.9230709075927734], "name" : "POSITION"}], "asset" : {"generator" : "Aspose.3D 24.6.0", "version" : "2.0"}, "buffers" : [{"uri" : "data:application/octet-stream;base64,", "byteLength" : 5512}], "bufferViews" : [{"buffer" : 0, "byteOffset" : 0, "byteLength" : 2712, "target" : 34963}, {"buffer" : 0, "byteOffset" : 2716, "byteLength" : 96, "byteStride" : 12, "target" : 34962}, {"buffer" : 0, "byteOffset" : 2816, "byteLength" : 2400, "byteStride" : 12, "target" : 34962}, {"buffer" : 0, "byteOffset" : 5220, "byteLength" : 288, "byteStride" : 12, "target" : 34962}], "meshes" : [{"primitives" : [{"attributes" : {"POSITION" : 1}, "indices" : 0, "mode" : 4}], "name" : ""}, {"primitives" : [{"attributes" : {"POSITION" : 3}, "indices" : 2, "mode" : 4}], "name" : ""}, {"primitives" : [{"attributes" : {"POSITION" : 5}, "indices" : 4, "mode" : 4}], "name" : ""}], "nodes" : [{"mesh" : 0, "name" : "CloudBounds_Cube.007"}, {"mesh" : 1, "name" : "CloudMesh_Cube.008"}, {"mesh" : 2, "name" : "DefinitioinObj_Cube"}], "scene" : 0, "scenes" : [{"nodes" : [0, 1, 2]}]}